<?xml version="1.0" encoding="UTF-8" standalone="no"?><!DOCTYPE svg PUBLIC "-//W3C//DTD SVG 1.1//EN" "http://www.w3.org/Graphics/SVG/1.1/DTD/svg11.dtd"><svg width="100%" height="100%" viewBox="0 0 12 12" version="1.1" xmlns="http://www.w3.org/2000/svg" xmlns:xlink="http://www.w3.org/1999/xlink" xml:space="preserve" xmlns:serif="http://www.serif.com/" style="fill-rule:evenodd;clip-rule:evenodd;stroke-linecap:round;stroke-linejoin:round;stroke-miterlimit:1.5;"><g><path d="M0.659,4.257c-0.125,0 -0.245,0.05 -0.333,0.138c-0.089,0.089 -0.139,0.209 -0.138,0.334c0,0.479 0,1.216 0,1.695c-0.001,0.26 0.21,0.471 0.47,0.471c1.693,0 7.523,0 10.449,0c0.285,0 0.543,-0.172 0.652,-0.436c0.109,-0.263 0.049,-0.567 -0.153,-0.769c-0.432,-0.432 -0.881,-0.88 -1.159,-1.158c-0.176,-0.176 -0.414,-0.275 -0.663,-0.275c-1.566,0 -7.416,0 -9.125,0Zm8.948,0.806c0,-0.064 0.026,-0.125 0.071,-0.17c0.045,-0.045 0.106,-0.07 0.17,-0.07c0.012,0 0.024,0 0.035,0c0.125,0 0.245,0.049 0.333,0.137c0.217,0.217 0.644,0.644 0.964,0.964c0.068,0.068 0.088,0.17 0.051,0.259c-0.037,0.089 -0.123,0.147 -0.22,0.147c-0.388,0 -0.882,0 -1.168,0c-0.13,0 -0.236,-0.106 -0.236,-0.236c0,-0.281 0,-0.748 0,-1.031Z" style="fill:#fff;stroke:#231f20;stroke-width:0.17px;"/><g><path d="M9.419,7.154c0,0.325 0.264,0.589 0.589,0.589c0.325,0 0.589,-0.264 0.589,-0.589l-1.178,0Z" style="fill:#231f20;"/><path d="M8.242,7.154c0,0.325 0.263,0.589 0.588,0.589c0.325,0 0.589,-0.264 0.589,-0.589l-1.177,0Z" style="fill:#231f20;"/></g><g><path d="M2.354,7.154c0,0.325 0.264,0.589 0.589,0.589c0.325,0 0.589,-0.264 0.589,-0.589l-1.178,0Z" style="fill:#231f20;"/><path d="M1.177,7.154c0,0.325 0.263,0.589 0.588,0.589c0.326,0 0.589,-0.264 0.589,-0.589l-1.177,0Z" style="fill:#231f20;"/></g><g><g><rect x="3.115" y="4.634" width="2.826" height="0.628" style="fill:#af1524;"/><rect x="3.115" y="5.262" width="2.826" height="0.628" style="fill:#fff;"/><rect x="3.115" y="5.89" width="2.826" height="0.628" style="fill:#1c448c;"/></g><g><rect x="5.941" y="4.634" width="3.14" height="0.628" style="fill:#ee2436;"/><rect x="5.941" y="5.262" width="3.14" height="0.628" style="fill:#fff;"/><rect x="5.941" y="5.89" width="3.14" height="0.628" style="fill:#00a2df;"/></g><g><rect x="0.941" y="4.634" width="0.725" height="1.884" style="fill:#231f20;"/><rect x="1.666" y="4.634" width="0.725" height="1.884" style="fill:#fae140;"/><rect x="2.39" y="4.634" width="0.725" height="1.884" style="fill:#ee2436;"/></g></g></g></svg>