<?xml version="1.0" encoding="UTF-8" standalone="no"?><!DOCTYPE svg PUBLIC "-//W3C//DTD SVG 1.1//EN" "http://www.w3.org/Graphics/SVG/1.1/DTD/svg11.dtd"><svg width="100%" height="100%" viewBox="0 0 355 108" version="1.1" xmlns="http://www.w3.org/2000/svg" xmlns:xlink="http://www.w3.org/1999/xlink" xml:space="preserve" xmlns:serif="http://www.serif.com/" style="fill-rule:evenodd;clip-rule:evenodd;stroke-linecap:round;stroke-linejoin:round;stroke-miterlimit:1.5;"><g><path d="M16.695,2.669c-3.765,0 -7.376,1.495 -10.038,4.158c-2.663,2.662 -4.158,6.273 -4.158,10.038c0,14.412 0,36.597 0,51.001c0,7.827 6.345,14.173 14.173,14.173c50.938,0 226.367,0 314.413,0c8.587,0 16.329,-5.173 19.615,-13.106c3.286,-7.934 1.47,-17.066 -4.602,-23.138c-13.007,-13.006 -26.51,-26.509 -34.865,-34.865c-5.29,-5.289 -12.465,-8.261 -19.945,-8.261c-47.126,0 -223.16,0 -274.593,0Zm269.268,24.234c0,-1.917 0.762,-3.755 2.117,-5.11c1.355,-1.355 3.193,-2.116 5.109,-2.116c0.361,0 0.721,0 1.077,0c3.759,0 7.364,1.493 10.022,4.151c6.505,6.506 19.353,19.354 28.982,28.982c2.047,2.047 2.66,5.127 1.552,7.802c-1.108,2.675 -3.719,4.419 -6.614,4.419c-11.7,0 -26.541,0 -35.158,0c-3.914,0 -7.087,-3.173 -7.087,-7.087c0,-8.457 0,-22.523 0,-31.041Z" style="fill:none;stroke:#808080;stroke-width:5px;"/><g><path d="M280.294,89.834c0,9.785 7.932,17.717 17.717,17.717c9.784,0 17.716,-7.932 17.716,-17.717l-35.433,0Z" style="fill:#808080;"/><path d="M244.861,89.834c0,9.785 7.932,17.717 17.716,17.717c9.785,0 17.717,-7.932 17.717,-17.717l-35.433,0Z" style="fill:#808080;"/></g><g><path d="M67.696,89.834c0,9.785 7.932,17.717 17.716,17.717c9.785,0 17.717,-7.932 17.717,-17.717l-35.433,0Z" style="fill:#808080;"/><path d="M32.263,89.834c0,9.785 7.931,17.717 17.716,17.717c9.785,0 17.717,-7.932 17.717,-17.717l-35.433,0Z" style="fill:#808080;"/></g><g><g><rect x="90.591" y="14.007" width="85.039" height="18.898" style="fill:#af1524;"/><rect x="90.591" y="32.905" width="85.039" height="18.898" style="fill:#fff;"/><rect x="90.591" y="51.803" width="85.039" height="18.898" style="fill:#1c448c;"/></g><g><rect x="175.63" y="14.007" width="94.488" height="18.898" style="fill:#ee2436;"/><rect x="175.63" y="32.905" width="94.488" height="18.898" style="fill:#fff;"/><rect x="175.63" y="51.803" width="94.488" height="18.898" style="fill:#00a2df;"/></g><g><rect x="25.176" y="14.007" width="21.805" height="56.693" style="fill:#231f20;"/><rect x="46.981" y="14.007" width="21.805" height="56.693" style="fill:#fae140;"/><rect x="68.786" y="14.007" width="21.805" height="56.693" style="fill:#ee2436;"/></g></g></g></svg>